# xmcd
#
# Track frame offsets:
#	150
#	16317
#	28912
#	43355
#	55219
#	67385
#	81030
#	93852
#	109092
#	122073
#	138463
#	149187
#	164911
#	175518
#	191074
#	213281
#	236152
#	250115
#	267569
#	281163
#
# Disc length: 3928 seconds
#
# Revision: 0
# Processed by: cddbd v1.5.2PL0 Copyright (c) Steve Scherf et al.
# Submitted via: EasyCDDAExtractor 2010.6.0.0
#
DISCID=400f5614
DTITLE=Petwers and Lee - The Best Of Peters and Lee
DYEAR=1998
DGENRE=Pop
TTITLE0=Welcome Home
TTITLE1=Something Stupid
TTITLE2=True Love Ways
TTITLE3=Bye Bye Love
TTITLE4=By You're Side
TTITLE5=The Crying Game
TTITLE6=Only You
TTITLE7=Suspicious Minds
TTITLE8=Cryin' In The Rain
TTITLE9=Don't Stay Away Too Long
TTITLE10=I'll Be You're Baby Tonight
TTITLE11=Rainbow
TTITLE12=Raining In My Heart
TTITLE13=Seasons In The Sun
TTITLE14=Killing Me Softly With His Song
TTITLE15=Vincent
TTITLE16=Hey Mr Music Man
TTITLE17=Send In The Clowns
TTITLE18=Until Its Time For You To Go
TTITLE19=Love Will Keep Us Together
EXTD=
EXTT0=
EXTT1=
EXTT2=
EXTT3=
EXTT4=
EXTT5=
EXTT6=
EXTT7=
EXTT8=
EXTT9=
EXTT10=
EXTT11=
EXTT12=
EXTT13=
EXTT14=
EXTT15=
EXTT16=
EXTT17=
EXTT18=
EXTT19=
PLAYORDER=
